HIERARCHY
ROOT Hips
{
	OFFSET 0.000000 0.000000 0.000000
	CHANNELS 6 Xposition Yposition Zposition Xrotation Yrotation Zrotation
	JOINT LeftUpLeg_virtual
	{
		OFFSET 0.000000 0.000000 0.000000
		CHANNELS 3 Xrotation Yrotation Zrotation
		JOINT LeftUpLeg
		{
			OFFSET 13.026900 -6.336304 -1.092800
			CHANNELS 3 Xrotation Yrotation Zrotation
			JOINT LeftLeg
			{
				OFFSET 0.524474 -46.096886 9.782700
				CHANNELS 3 Xrotation Yrotation Zrotation
				JOINT LeftFoot
				{
					OFFSET -0.524474 -53.427422 -12.948200
					CHANNELS 3 Xrotation Yrotation Zrotation
					JOINT LeftToeBase
					{
						OFFSET 0.192200 -14.009700 16.364100
						CHANNELS 3 Xrotation Yrotation Zrotation
						JOINT LeftToe_End
						{
							OFFSET -1.784700 -0.561700 9.474800
							CHANNELS 3 Xrotation Yrotation Zrotation
							End Site
							{
								OFFSET 0 0 0
							}
						}
					}
				}
			}
		}
	}
	JOINT RightUpLeg_virtual
	{
		OFFSET 0.000000 0.000000 0.000000
		CHANNELS 3 Xrotation Yrotation Zrotation
		JOINT RightUpLeg
		{
			OFFSET -12.883000 -6.336304 -1.092800
			CHANNELS 3 Xrotation Yrotation Zrotation
			JOINT RightLeg
			{
				OFFSET -0.524587 -46.096825 9.782800
				CHANNELS 3 Xrotation Yrotation Zrotation
				JOINT RightFoot
				{
					OFFSET 0.524587 -53.427383 -12.948300
					CHANNELS 3 Xrotation Yrotation Zrotation
					JOINT RightToeBase
					{
						OFFSET -0.192200 -14.009700 16.364100
						CHANNELS 3 Xrotation Yrotation Zrotation
						JOINT RightToe_End
						{
							OFFSET 1.784700 -0.561700 9.474800
							CHANNELS 3 Xrotation Yrotation Zrotation
							End Site
							{
								OFFSET 0 0 0
							}
						}
					}
				}
			}
		}
	}
	JOINT Spine_virtual
	{
		OFFSET 0.000000 0.000000 0.000000
		CHANNELS 3 Xrotation Yrotation Zrotation
		JOINT Spine
		{
			OFFSET 0.072000 7.257294 -0.789700
			CHANNELS 3 Xrotation Yrotation Zrotation
			JOINT Spine1
			{
				OFFSET 0.000000 12.508769 -0.658067
				CHANNELS 3 Xrotation Yrotation Zrotation
				JOINT Spine1_split
				{
					OFFSET 0.000000 12.508769 -0.658067
					CHANNELS 3 Xrotation Yrotation Zrotation
					JOINT Spine2
					{
						OFFSET 0.000000 12.508769 -0.658067
						CHANNELS 3 Xrotation Yrotation Zrotation
						JOINT Neck_virtual
						{
							OFFSET 0.000000 0.000000 0.000000
							CHANNELS 3 Xrotation Yrotation Zrotation
							JOINT Neck
							{
								OFFSET 0.000000 14.033295 7.520400
								CHANNELS 3 Xrotation Yrotation Zrotation
								JOINT Head
								{
									OFFSET 0.000000 8.198502 5.703100
									CHANNELS 3 Xrotation Yrotation Zrotation
									JOINT HeadTop_End
									{
										OFFSET 0.000000 17.760803 13.332701
										CHANNELS 3 Xrotation Yrotation Zrotation
										End Site
										{
											OFFSET 0 0 0
										}
									}
								}
							}
						}
						JOINT LeftShoulder_virtual
						{
							OFFSET 0.000000 0.000000 0.000000
							CHANNELS 3 Xrotation Yrotation Zrotation
							JOINT LeftShoulder
							{
								OFFSET 6.292450 5.785301 -0.669000
								CHANNELS 3 Xrotation Yrotation Zrotation
								JOINT LeftShoulder_split
								{
									OFFSET 6.292450 5.785301 -0.669000
									CHANNELS 3 Xrotation Yrotation Zrotation
									JOINT LeftArm
									{
										OFFSET 13.907140 -6.093903 1.965100
										CHANNELS 3 Xrotation Yrotation Zrotation
										JOINT LeftForeArm
										{
											OFFSET 34.140198 0.000000 0.000000
											CHANNELS 3 Xrotation Yrotation Zrotation
											JOINT LeftHand
											{
												OFFSET 40.960209 0.000000 0.000000
												CHANNELS 3 Xrotation Yrotation Zrotation
												End Site
												{
													OFFSET 0 0 0
												}
											}
										}
									}
								}
							}
						}
						JOINT RightShoulder_virtual
						{
							OFFSET 0.000000 0.000000 0.000000
							CHANNELS 3 Xrotation Yrotation Zrotation
							JOINT RightShoulder
							{
								OFFSET -6.292450 5.785301 -0.669000
								CHANNELS 3 Xrotation Yrotation Zrotation
								JOINT RightShoulder_split
								{
									OFFSET -6.292450 5.785301 -0.669000
									CHANNELS 3 Xrotation Yrotation Zrotation
									JOINT RightArm
									{
										OFFSET -13.907140 -6.093903 1.965100
										CHANNELS 3 Xrotation Yrotation Zrotation
										JOINT RightForeArm
										{
											OFFSET -34.140198 0.000000 0.000000
											CHANNELS 3 Xrotation Yrotation Zrotation
											JOINT RightHand
											{
												OFFSET -40.960209 0.000000 0.000000
												CHANNELS 3 Xrotation Yrotation Zrotation
												End Site
												{
													OFFSET 0 0 0
												}
											}
										}
									}
								}
							}
						}
					}
				}
			}
		}
	}
}
MOTION
Frames: 7
Frame Time: 0.03333333
5.173203 118.170593 -4.186235 0.000000 0.000000 0.000000 -1.999642 11.192850 -1.366324 -34.732605 -10.620752 2.301924 43.588543 7.374039 -3.863080 29.999748 -4.028394 3.863942 -22.487862 1.721294 -1.806095 0.000000 0.000000 0.000000 -3.416804 11.569296 -0.889758 -14.975540 -8.183460 4.247351 29.530948 -0.208609 -0.864003 1.980567 -12.773966 -1.811522 -14.286503 1.894604 -4.994837 0.000000 0.000000 0.000000 -4.514393 14.227386 -0.567027 9.585136 -1.315253 -0.406999 0.779828 -0.272262 1.311452 0.098530 -0.192686 0.041091 0.000000 0.000000 0.000000 -0.099581 1.978934 2.385856 -12.549553 9.124784 11.420027 5.744165 -22.919987 -29.957073 0.000000 0.000000 0.000000 0.833476 0.393740 2.164957 -1.512842 1.345616 -8.077729 0.323208 -3.021068 -2.378751 2.465249 -6.932086 -65.638610 33.076410 -27.001512 3.540756 0.000000 0.000000 0.000000 1.318204 0.371931 1.982460 -4.114343 1.678359 15.255516 -22.854740 -6.075377 1.622173 12.576767 9.484665 55.390662 -1.082577 28.118591 26.421228 0.000000 0.000000 0.000000 
5.152516 118.838615 -1.299002 0.000000 0.000000 0.000000 -1.953655 10.113721 -1.300156 -34.703464 -9.419884 0.921249 36.496378 9.656513 -3.189095 25.227597 -2.904293 6.444114 -19.596583 2.046735 -2.336664 0.000000 0.000000 0.000000 -2.734711 9.585524 -0.845278 -14.270320 -8.339895 4.011087 29.266097 -0.050522 -0.674527 3.095451 -12.418928 -2.678164 -15.471053 1.853873 -4.606365 0.000000 0.000000 0.000000 -3.319019 12.986730 -1.075690 8.933751 -0.904328 -0.189131 0.724127 -0.279685 1.243450 0.009285 -0.248222 0.058306 0.000000 0.000000 0.000000 -0.095765 1.997603 2.235729 -12.689545 8.878996 11.347476 5.920666 -23.276241 -30.042181 0.000000 0.000000 0.000000 0.866545 0.402232 2.210578 -1.519004 1.646084 -8.114415 -0.460098 -3.349999 -2.704481 3.169045 -6.293273 -65.408753 33.101224 -26.800797 3.733898 0.000000 0.000000 0.000000 1.208195 0.382406 1.870900 -4.068820 1.843188 14.362937 -22.867634 -5.688547 0.952594 11.837301 10.110103 55.716544 -2.261089 30.949800 26.748981 0.000000 0.000000 0.000000 
5.207908 119.969406 2.238974 0.000000 0.000000 0.000000 -1.860490 8.178699 -0.979449 -35.393436 -6.174575 -0.266076 27.652287 11.201719 -1.219100 22.793941 -2.336978 6.062540 -12.730523 1.963201 -2.258507 0.000000 0.000000 0.000000 -2.244041 6.719617 -0.616307 -12.686218 -9.096540 3.324121 28.180365 0.921012 -0.398712 4.270241 -10.481886 -3.167066 -17.767615 2.071796 -4.270687 0.000000 0.000000 0.000000 -2.260511 11.098625 -1.402367 8.523572 -0.144350 0.202312 0.738310 -0.232352 1.148095 -0.035263 -0.430154 0.096664 0.000000 0.000000 0.000000 -0.081587 2.046832 2.155961 -12.917148 8.737718 11.134282 5.638763 -23.553527 -30.272949 0.000000 0.000000 0.000000 0.857268 0.414746 2.089061 -1.441565 2.240913 -8.626307 -1.110166 -4.057704 -3.192172 4.053704 -4.628330 -65.377908 33.954035 -26.606172 4.499119 0.000000 0.000000 0.000000 1.017215 0.393624 1.649003 -3.968201 2.492733 12.839723 -22.504490 -5.818571 0.841543 11.659492 11.396773 55.970682 -4.277833 33.704081 27.383432 0.000000 0.000000 0.000000 
5.370412 121.020615 5.802465 0.000000 0.000000 0.000000 -1.687885 5.778061 -0.428189 -37.093716 -1.780873 -1.170986 19.592500 11.118365 1.467112 24.556559 -3.181462 2.925304 -7.618220 1.456043 -0.753462 0.000000 0.000000 0.000000 -1.738584 3.701160 -0.272567 -10.361252 -10.296561 2.438711 26.222660 2.464962 -0.043358 4.102270 -7.453549 -3.813460 -19.454605 2.504548 -4.098236 0.000000 0.000000 0.000000 -1.525182 8.889848 -1.517737 8.396332 0.720487 0.598836 0.911335 -0.162566 1.118517 0.018057 -0.754240 0.137907 0.000000 0.000000 0.000000 -0.088224 2.079869 2.238771 -13.105113 8.732990 10.808839 4.839990 -23.842309 -30.501719 0.000000 0.000000 0.000000 0.762578 0.418738 1.906062 -1.285698 3.045946 -9.359679 -1.305971 -4.790174 -3.569992 4.936663 -2.035970 -65.611685 35.495759 -26.566934 5.692980 0.000000 0.000000 0.000000 0.836924 0.402853 1.454787 -3.872152 3.555953 11.041261 -22.004265 -6.413389 1.137871 11.819612 12.742852 56.078916 -6.610802 35.116547 28.011214 0.000000 0.000000 0.000000 
5.628562 121.473053 9.449358 0.000000 0.000000 0.000000 -1.494578 3.199547 0.187393 -39.612717 3.832324 -1.592995 13.514655 10.046033 4.117697 28.340622 -5.492166 -0.275429 -7.680974 0.715795 2.000305 0.000000 0.000000 0.000000 -1.098958 1.083348 0.097694 -7.419409 -12.027038 1.619860 23.876887 4.147217 0.290017 1.846103 -4.321940 -4.913003 -19.009055 3.071686 -4.207505 0.000000 0.000000 0.000000 -0.905133 6.742357 -1.524978 8.438443 1.499882 0.838298 1.267603 -0.074654 1.221708 0.069691 -1.032826 0.162181 0.000000 0.000000 0.000000 -0.118728 2.082248 2.502052 -13.205273 8.784478 10.422344 3.742383 -24.240179 -30.574614 0.000000 0.000000 0.000000 0.583210 0.437791 1.789629 -1.076091 3.814580 -10.120630 -1.026420 -5.363803 -3.401011 5.720600 1.242800 -66.095194 37.433057 -26.657103 7.082682 0.000000 0.000000 0.000000 0.701584 0.424911 1.398071 -3.768670 4.895288 9.392068 -21.575844 -7.333338 1.504441 11.848860 13.623965 55.934489 -8.811140 34.704529 28.470684 0.000000 0.000000 0.000000 
6.114920 120.932327 13.179350 0.000000 0.000000 0.000000 -1.328748 0.756531 0.692657 -42.000414 10.445842 -1.528648 9.976430 9.218993 6.373708 31.351620 -8.088553 -1.182368 -10.566708 -0.118086 4.500423 0.000000 0.000000 0.000000 -0.537021 -0.659113 0.348364 -4.274280 -14.263616 0.963825 21.950300 5.616877 0.613153 -1.998611 -2.065854 -5.940578 -16.461546 3.671998 -4.688545 0.000000 0.000000 0.000000 -0.511462 4.933435 -1.532994 8.473886 2.078134 0.789173 1.771226 0.045022 1.442729 0.142215 -1.119765 0.162798 0.000000 0.000000 0.000000 -0.156243 2.070344 2.851759 -13.252311 8.751201 10.016760 2.722868 -24.921144 -30.244583 0.000000 0.000000 0.000000 0.361477 0.508739 1.797388 -0.842906 4.267971 -10.727373 -0.447737 -5.528846 -2.912062 6.411861 4.750704 -66.769969 39.277563 -26.546722 8.310680 0.000000 0.000000 0.000000 0.644794 0.492239 1.529376 -3.659155 6.310428 8.212518 -21.188579 -8.381937 1.780118 11.338944 13.731354 55.693134 -10.611408 32.874698 28.769488 0.000000 0.000000 0.000000 
6.644590 119.487190 17.102009 0.000000 0.000000 0.000000 -1.251898 -1.453208 0.950095 -44.200456 16.777825 -1.296368 10.025426 8.978635 8.162552 32.943163 -10.142845 -0.233624 -11.530308 -0.436854 5.446253 0.000000 0.000000 0.000000 -0.164041 -1.507610 0.464410 -1.254274 -16.640349 0.608980 21.013103 6.748745 0.915768 -6.472127 -1.206929 -6.044808 -14.170634 4.234374 -5.496690 0.000000 0.000000 0.000000 -0.495607 3.612434 -1.610588 8.255867 2.444078 0.474967 2.319991 0.200523 1.707921 0.222830 -0.907801 0.133159 0.000000 0.000000 0.000000 -0.158692 2.077234 3.162170 -13.184331 8.597330 9.642901 2.428395 -25.834356 -29.430052 0.000000 0.000000 0.000000 0.170735 0.653574 1.905640 -0.631546 4.271107 -11.089880 0.003157 -5.129463 -2.357675 7.209447 8.015448 -67.617568 40.673572 -26.026185 9.106533 0.000000 0.000000 0.000000 0.703993 0.618476 1.765406 -3.600639 7.486651 7.612140 -20.836535 -9.017807 1.901524 10.362920 13.194836 55.449422 -11.851743 30.518467 28.961815 0.000000 0.000000 0.000000 
